# AST/ASF file generated using VICON BodyLanguage
# -----------------------------------------------
:version 1.10
:name VICON
:units
  mass 1.0
  length 0.45
  angle deg
:documentation
   .ast/.asf automatically generated from VICON data using
   VICON BodyBuilder and BodyLanguage model FoxedUp or BRILLIANT.MOD
:root
   order TX TY TZ RX RY RZ
   axis XYZ
   position 0 0 0  
   orientation 0 0 0 
:bonedata
  begin
     id 1 
     name lhipjoint
     direction 0.653368 -0.678499 0.335782 
     length 2.51848 
     axis 0 0 0  XYZ
  end
  begin
     id 2 
     name lfemur
     direction 0.34202 -0.939693 0  
     length 6.57749  
     axis 0 0 20  XYZ
    dof rx ry rz
    limits (-160.0 20.0)
           (-70.0 70.0)
           (-60.0 70.0)
  end
  begin
     id 3 
     name ltibia
     direction 0.34202 -0.939693 0   
     length 7.94618   
     axis 0 0 20   XYZ
    dof rx
    limits (-10.0 170.0)
  end
  begin
     id 4 
     name lfoot
     direction 0.0811271 -0.222895 0.971461   
     length 2.31339   
     axis -90 7.62852e-016 20   XYZ
    dof rx rz
    limits (-45.0 90.0)
           (-70.0 20.0)
  end
  begin
     id 5 
     name ltoes
     direction 1.53568e-011 -4.21885e-011 1   
     length 1.15935   
     axis -90 7.62852e-016 20   XYZ
    dof rx
    limits (-90.0 20.0)
  end
  begin
     id 6 
     name rhipjoint
     direction -0.640058 -0.688614 0.340788   
     length 2.48149  
     axis 0 0 0  XYZ 
  end
  begin
     id 7 
     name rfemur
     direction -0.34202 -0.939693 0   
     length 6.57875   
     axis 0 0 -20   XYZ
    dof rx ry rz
    limits (-160.0 20.0)
           (-70.0 70.0)
           (-70.0 60.0)
  end
  begin
     id 8 
     name rtibia
     direction -0.34202 -0.939693 0   
     length 7.977   
     axis 0 0 -20   XYZ
    dof rx
    limits (-10.0 170.0)
 end
 begin
     id 9 
     name rfoot
     direction -0.0979793 -0.269196 0.958089   
     length 2.19857  
     axis -90 -7.62852e-016 -20   XYZ
    dof rx rz
    limits (-45.0 90.0)
           (-20.0 70.0)
  end
  begin
     id 10 
     name rtoes
     direction -1.53556e-011 -4.21868e-011 1   
     length 1.09838   
     axis -90 -7.62852e-016 -20   XYZ
    dof rx
    limits (-90.0 20.0)
  end
  begin
     id 11 
     name lowerback
     direction 0.0149039 0.998517 -0.0523597   
     length 2.10809   
     axis 0 0 0   XYZ
    dof rx ry rz
    limits (-20.0 45.0)
           (-30.0 30.0)
           (-30.0 30.0)
  end
  begin
     id 12 
     name upperback
     direction -0.00882659 0.999418 -0.0329624   
     length 2.1102   
     axis 0 0 0   XYZ
    dof rx ry rz
    limits (-20.0 45.0)
           (-30.0 30.0)
           (-30.0 30.0)
  end
  begin
     id 13 
     name thorax
     direction -0.0165585 0.999826 -0.0085833   
     length 2.11039   
     axis 0 0 0   XYZ
    dof rx ry rz
    limits (-20.0 45.0)
           (-30.0 30.0)
           (-30.0 30.0)
  end
  begin
     id 14 
     name lowerneck
     direction -0.0130877 0.999911 0.00260353   
     length 1.73253   
     axis 0 0 0   XYZ
    dof rx ry rz
    limits (-20.0 45.0)
           (-30.0 30.0)
           (-30.0 30.0)
  end
  begin
     id 15 
     name upperneck
     direction -0.0348454 0.928205 -0.370435   
     length 1.66692   
     axis 0 0 0   XYZ
    dof rx ry rz
    limits (-20.0 45.0)
           (-30.0 30.0)
           (-30.0 30.0)
  end
  begin
     id 16
     name head
     direction -0.00807754 0.992494 -0.122026  
     length 1.72765  
     axis 0 0 0   XYZ
    dof rx ry rz
    limits (-20.0 45.0)
           (-30.0 30.0)
           (-30.0 30.0)
  end
  begin
     id 17 
     name lclavicle
     direction 0.987582 0.144023 0.0627671  
     length 3.49235  
     axis 0 0 0   XYZ
    dof ry rz
    limits (-20.0 10.0)
           (0.0 20.0)
  end
  begin
     id 18 
     name lhumerus
     direction 1 -4.48958e-011 -1.45183e-018   
     length 5.41917   
     axis 180 -30 -90   XYZ
    dof rx ry rz
    limits (-60.0 90.0)
           (-90.0 90.0)
           (-90.0 90.0)
  end
  begin
     id 19
     name lradius
     direction 1 -4.48999e-011 5.75106e-027   
     length 2.44373   
     axis 180 -30 -90   XYZ
    dof rx
    limits (-10.0 170.0)
  end
  begin
     id 20
     name lwrist
     direction 1 -4.48987e-011 1.53461e-026   
     length 1.22186   
     axis -1.09697e-014 90 90   XYZ
    dof ry
    limits (-180.0 0.0)
 end
  begin
     id 21 
     name lhand
     direction 1 -4.48881e-011 3.06923e-026   
     length 0.727502   
     axis -1.95843e-014 90 90   XYZ
    dof rx rz
    limits (-90.0 90.0)
           (-45.0 45.0)
  end
  begin
     id 22 
     name lfingers
     direction 1 -4.48907e-011 6.13845e-026   
     length 0.586531   
     axis -3.91686e-014 90 90   XYZ
    dof rx
    limits (0.0 90.0)
  end
  begin
     id 23
     name lthumb
     direction 0.707107 -6.3487e-011 0.707107   
     length 0.842145   
     axis -90 45 2.85299e-015   XYZ
    dof rx rz
    limits (-45.0 45.0)
           (-45.0 45.0)
  end
  begin
     id 24 
     name rclavicle
     direction -0.980998 0.169556 0.0943023   
     length 3.29272  
     axis 0 0 0   XYZ 
    dof ry rz
    limits (-10.0 20.0)
           (-20.0 0.0)
  end
  begin
     id 25 
     name rhumerus
     direction -1 -1.83355e-005 2.45537e-005  
     length 5.58976   
     axis 180 30 90   XYZ
    dof rx ry rz
    limits (-90.0 60.0)
           (-90.0 90.0)
           (-90.0 90.0)
  end
  begin
     id 26 
     name rradius
     direction -1 -4.48967e-011 5.97228e-027   
     length 2.4806   
     axis 180 30 90   XYZ
    dof rx
    limits (-10.0 170.0)
  end
  begin
     id 27 
     name rwrist
     direction -1 -4.48963e-011 1.53461e-026   
     length 1.2403   
     axis -1.09697e-014 -90 -90   XYZ
    dof ry
    limits (-180.0 0.0)
  end
  begin
     id 28
     name rhand
     direction -1 -4.48881e-011 3.06923e-026   
     length 0.816009   
     axis -1.95843e-014 -90 -90   XYZ
    dof rx rz
    limits (-90.0 90.0)
           (-45.0 45.0)
  end
  begin
     id 29
     name rfingers
     direction -1 -4.49018e-011 6.13845e-026   
     length 0.657887   
     axis -3.91686e-014 -90 -90   XYZ
    dof rx
    limits (0.0 90.0)
  end
  begin
     id 30
     name rthumb
     direction -0.707107 -6.34872e-011 0.707107   
     length 0.944599   
     axis -90 -45 -2.85299e-015   XYZ
    dof rx rz
    limits (-45.0 45.0)
           (-45.0 45.0)
  end
:hierarchy
  begin
    root lhipjoint rhipjoint lowerback
    lhipjoint lfemur
    lfemur ltibia
    ltibia lfoot
    lfoot ltoes
    rhipjoint rfemur
    rfemur rtibia
    rtibia rfoot
    rfoot rtoes
    lowerback upperback
    upperback thorax
    thorax lowerneck lclavicle rclavicle
    lowerneck upperneck
    upperneck head
    lclavicle lhumerus
    lhumerus lradius
    lradius lwrist
    lwrist lhand lthumb
    lhand lfingers
    rclavicle rhumerus
    rhumerus rradius
    rradius rwrist
    rwrist rhand rthumb
    rhand rfingers
  end

#!OML:ASF F:\VICON\USERDATA\INSTALL\rory3\rory3.ASF
:FULLY-SPECIFIED
:DEGREES
154
root 2.84781 15.9181 -6.09476 19.6657 61.1775 8.51417
lowerback -7.11845 -6.46248 -6.92605
upperback -10.6434 -7.72495 10.3154
thorax -5.0575 -2.92209 14.9576
lowerneck -3.44652 -11.7114 -10.035
upperneck 34.7237 -14.0804 -2.99314
head 12.7062 -7.60101 -1.08085
rclavicle -9.14409e-015 -1.27222e-014
rhumerus 78.5076 -16.1236 -3.55933
rradius 39.7445
rwrist 33.5395
rhand 14.2413 -4.36015
rfingers 7.12502
rthumb 39.137 -29.8408
lclavicle -9.14409e-015 -1.27222e-014
lhumerus 94.799 22.5306 28.3368
lradius 38.9027
lwrist -13.6685
lhand -16.3364 14.3835
lfingers 7.12502
lthumb 9.87564 44.1318
rfemur -67.8693 -17.2436 32.6114
rtibia 52.9351
rfoot 1.93268 -31.1613
rtoes 34.2359
lfemur -11.3365 -5.3132 -36.0748
ltibia 42.843
lfoot -22.0297 7.50218
ltoes -7.05603
155
root 2.94094 15.9166 -5.99098 19.987 62.4261 8.99388
lowerback -7.50074 -6.60869 -6.94283
upperback -10.9135 -7.87666 10.2377
thorax -5.10423 -2.97546 14.835
lowerneck -2.33229 -11.9133 -9.98593
upperneck 34.3309 -14.4046 -3.21183
head 12.306 -7.76963 -1.10431
rclavicle 1.19271e-015 -1.90833e-014
rhumerus 78.7151 -15.7613 -3.43068
rradius 40.4562
rwrist 32.9232
rhand 16.6652 -5.6487
rfingers 7.12502
rthumb 41.4167 -30.4312
lclavicle 1.19271e-015 -1.90833e-014
lhumerus 95.6544 21.7189 28.8746
lradius 39.1204
lwrist -14.5415
lhand -16.9962 12.6622
lfingers 7.12502
lthumb 9.23904 42.4398
rfemur -66.5916 -17.1895 32.2654
rtibia 52.8556
rfoot -2.35752 -32.1207
rtoes 35.4115
lfemur -11.1047 -4.6018 -35.8121
ltibia 43.5721
lfoot -21.3776 7.99728
ltoes -6.89795
156
root 3.04472 15.9244 -5.88701 19.5507 63.9424 8.61502
lowerback -8.14838 -6.72295 -6.54072
upperback -11.072 -7.98118 10.2174
thorax -4.93165 -3.04902 14.4847
lowerneck -3.30568 -12.6205 -10.0741
upperneck 37.0482 -15.1867 -3.65064
head 13.6935 -8.11225 -1.58866
rclavicle -1.1609e-013 3.81667e-014
rhumerus 78.6141 -15.6614 -3.07884
rradius 41.1161
rwrist 32.6538
rhand 16.4 -5.32218
rfingers 7.12502
rthumb 41.1678 -30.185
lclavicle -1.1609e-013 3.81667e-014
lhumerus 97.057 20.8046 30.2742
lradius 39.1996
lwrist -16.3595
lhand -17.0322 10.2302
lfingers 7.12502
lthumb 9.2043 40.0093
rfemur -65.213 -17.2212 32.2387
rtibia 52.6304
rfoot -9.81111 -32.9829
rtoes 40.5604
lfemur -10.8724 -4.06537 -35.1058
ltibia 44.3403
lfoot -20.7091 9.0312
ltoes -7.71597
157
root 3.14443 15.9314 -5.7872 19.9779 65.2403 9.00027
lowerback -8.86369 -6.82361 -6.42441
upperback -11.2665 -8.06358 10.0945
thorax -4.75349 -3.09524 14.1855
lowerneck -2.85118 -12.1507 -8.16078
upperneck 36.1921 -14.3805 -4.89308
head 12.8492 -7.68645 -2.10127
rclavicle -5.56597e-015 -5.08889e-014
rhumerus 78.6155 -15.6113 -3.06554
rradius 41.9095
rwrist 32.5668
rhand 16.0017 -5.07548
rfingers 7.12502
rthumb 40.7937 -30.0571
lclavicle -5.56597e-015 -5.08889e-014
lhumerus 97.5471 20.4952 30.1555
lradius 39.9493
lwrist -17.2291
lhand -17.3199 8.89129
lfingers 7.12502
lthumb 8.92666 38.6824
rfemur -64.0311 -16.6918 31.3713
rtibia 52.373
rfoot -11.7629 -33.22
rtoes 36.9281
lfemur -10.9749 -3.38229 -34.8104
ltibia 45.2171
lfoot -19.841 10.4193
ltoes -9.55792
158
root 3.23601 15.9238 -5.68846 21.1141 66.2346 10.1058
lowerback -9.49315 -6.98327 -6.71775
upperback -11.427 -8.21951 10.0498
thorax -4.51152 -3.15902 14.2233
lowerneck -2.0787 -12.0589 -9.43588
upperneck 35.4027 -14.4954 -3.7141
head 12.6087 -7.76438 -1.40423
rclavicle 2.94201e-014 8.5875e-014
rhumerus 79.0265 -15.593 -3.41351
rradius 42.8855
rwrist 32.7551
rhand 15.0396 -5.30097
rfingers 7.12502
rthumb 39.889 -30.5604
lclavicle 2.94201e-014 8.5875e-014
lhumerus 96.6552 21.1972 28.0118
lradius 41.4079
lwrist -16.8795
lhand -18.0549 9.37218
lfingers 7.12502
lthumb 8.2173 39.1924
rfemur -62.9895 -16.1793 30.3946
rtibia 52.1151
rfoot -15.817 -33.1192
rtoes 36.3534
lfemur -11.3291 -2.29424 -34.814
ltibia 46.2662
lfoot -18.9499 11.5825
ltoes -10.7198
159
root 3.33068 15.9035 -5.59119 22.1474 67.194 11.1507
lowerback -10.1129 -7.17322 -7.0039
upperback -11.5432 -8.41459 10.0516
thorax -4.20967 -3.24904 14.3
lowerneck -2.53099 -12.0854 -9.58646
upperneck 36.0347 -14.4408 -3.76583
head 12.9851 -7.74531 -1.46557
rclavicle -1.63003e-013 3.81667e-014
rhumerus 79.4559 -15.5856 -3.69231
rradius 43.6935
rwrist 32.9173
rhand 13.6358 -5.17885
rfingers 7.12502
rthumb 38.566 -30.8218
lclavicle -1.63003e-013 3.81667e-014
lhumerus 95.9729 21.6869 26.3803
lradius 42.5542
lwrist -17.3345
lhand -18.7344 10.1673
lfingers 7.12502
lthumb 7.56156 40.0121
rfemur -61.9006 -15.935 29.7246
rtibia 51.9404
rfoot -20.182 -32.1705
rtoes 36.3314
lfemur -11.7062 -1.16035 -34.7806
ltibia 47.4427
lfoot -18.2525 13.0937
ltoes -9.37153
160
root 3.43061 15.8948 -5.49004 22.6925 68.2265 11.7545
lowerback -10.7069 -7.36888 -7.07239
upperback -11.6582 -8.6226 10.0612
thorax -3.94112 -3.35573 14.2529
lowerneck -2.27678 -12.1708 -9.75111
upperneck 36.0902 -14.552 -3.76899
head 12.981 -7.80959 -1.44124
rclavicle -6.83819e-014 -2.54444e-014
rhumerus 79.9623 -15.5452 -3.95198
rradius 44.2976
rwrist 32.7644
rhand 14.0184 -5.20437
rfingers 7.12502
rthumb 38.9269 -30.7453
lclavicle -6.83819e-014 -2.54444e-014
lhumerus 95.8334 21.6564 25.7399
lradius 43.3062
lwrist -18.6902
lhand -18.9463 10.3538
lfingers 7.12502
lthumb 7.35701 40.2059
rfemur -60.6993 -15.577 29.0722
rtibia 51.8186
rfoot -22.367 -31.9533
rtoes 31.1698
lfemur -12.0695 0.0376672 -34.5379
ltibia 48.7503
lfoot -17.6033 15.3046
ltoes -7.73862
161
root 3.53219 15.8894 -5.38048 23.451 69.2003 12.7811
lowerback -11.1415 -7.49991 -7.36284
upperback -11.7416 -8.74377 9.99521
thorax -3.73619 -3.40522 14.2808
lowerneck -2.40832 -12.2665 -9.64617
upperneck 36.3542 -14.5278 -4.23789
head 13.0685 -7.83191 -1.65053
rclavicle 1.90833e-014 -5.08889e-014
rhumerus 80.2675 -15.5036 -4.43008
rradius 45.0711
rwrist 33.5216
rhand 15.444 -4.89219
rfingers 7.12502
rthumb 40.2695 -30.0364
lclavicle 1.90833e-014 -5.08889e-014
lhumerus 95.8066 21.6334 25.2876
lradius 44.0438
lwrist -19.9666
lhand -14.8999 5.01112
lfingers 7.12502
lthumb 11.2613 34.6888
rfemur -59.461 -15.3972 28.2196
rtibia 51.7778
rfoot -24.7236 -31.762
rtoes 40.5667
lfemur -12.3152 1.67244 -34.39
ltibia 50.1699
lfoot -16.722 17.4192
ltoes -7.69416
162
root 3.63288 15.886 -5.27682 22.942 70.5537 12.42
lowerback -11.571 -7.569 -7.09126
upperback -11.7549 -8.80546 10.112
thorax -3.51466 -3.4528 14.1901
lowerneck -2.94041 -12.3134 -10.5035
upperneck 37.1744 -14.5967 -3.62699
head 13.7088 -7.86735 -1.40716
rclavicle 5.88403e-014 -2.8625e-014
rhumerus 80.2423 -15.6815 -4.45808
rradius 46.0689
rwrist 34.4363
rhand 16.0739 -4.71129
rfingers 7.12502
rthumb 40.8615 -29.6715
lclavicle 5.88403e-014 -2.8625e-014
lhumerus 95.5744 22.0661 24.4275
lradius 44.891
lwrist -20.5238
lhand -16.0955 6.70158
lfingers 7.12502
lthumb 10.108 36.4388
rfemur -58.3012 -15.5023 28.1007
rtibia 51.8255
rfoot -25.2221 -31.8794
rtoes 37.7206
lfemur -12.7892 3.22605 -33.6163
ltibia 51.68
lfoot -15.9542 19.6381
ltoes -7.60935
163
root 3.72535 15.8788 -5.18406 21.3174 72.04 10.8132
lowerback -11.9302 -7.72486 -6.40842
upperback -11.7721 -9.01119 10.3678
thorax -3.32493 -3.5903 13.9977
lowerneck -3.20874 -12.315 -11.0184
upperneck 37.5135 -14.5671 -3.35274
head 14.0097 -7.87201 -1.27031
rclavicle 1.35174e-013 -4.77083e-014
rhumerus 80.566 -15.9372 -4.61291
rradius 46.8497
rwrist 34.5987
rhand 16.3883 -4.65105
rfingers 7.12502
rthumb 41.1568 -29.5174
lclavicle 1.35174e-013 -4.77083e-014
lhumerus 95.1854 22.5515 23.3943
lradius 45.428
lwrist -21.1668
lhand -14.8125 5.99609
lfingers 7.12502
lthumb 11.3456 35.6692
rfemur -57.3773 -15.6951 28.5799
rtibia 51.9902
rfoot -26.1531 -31.8786
rtoes 36.0972
lfemur -13.5679 4.54916 -32.5571
ltibia 53.2692
lfoot -15.2435 22.9719
ltoes -11.1544
164
root 3.81388 15.8556 -5.09138 22.725 72.6559 12.5727
lowerback -12.0459 -7.88724 -6.97149
upperback -11.8459 -9.18184 10.2376
thorax -3.24284 -3.65002 14.1402
lowerneck -3.07746 -12.1923 -11.296
upperneck 37.617 -14.4103 -3.14259
head 14.0771 -7.80841 -1.12318
rclavicle -6.83819e-014 1.90833e-014
rhumerus 81.1272 -15.9766 -4.98352
rradius 47.2024
rwrist 34.5811
rhand 16.5308 -4.51109
rfingers 7.12502
rthumb 41.2906 -29.3344
lclavicle -6.83819e-014 1.90833e-014
lhumerus 95.0407 22.6445 22.7341
lradius 45.3939
lwrist -22.1779
lhand -12.1616 3.31821
lfingers 7.12502
lthumb 13.9012 32.8336
rfemur -56.6596 -15.8253 27.8381
rtibia 52.3689
rfoot -27.1051 -31.8051
rtoes 35.364
lfemur -14.1587 6.32895 -32.9403
ltibia 54.7607
lfoot -15.169 26.5396
ltoes -3.21619
165
root 3.90241 15.8356 -5.00034 24.5223 73.1764 14.8337
lowerback -12.0716 -7.89009 -7.60822
upperback -11.8175 -9.14771 10.0137
thorax -3.16167 -3.61001 14.2581
lowerneck -3.35762 -12.2206 -11.7621
upperneck 37.9367 -14.4364 -2.84126
head 14.3753 -7.82909 -0.987071
rclavicle 5.56597e-014 6.04305e-014
rhumerus 81.2453 -16.2275 -4.87403
rradius 47.586
rwrist 34.1966
rhand 16.1258 -4.85977
rfingers 7.12502
rthumb 40.9102 -29.8046
lclavicle 5.56597e-014 6.04305e-014
lhumerus 95.479 22.57 22.7473
lradius 44.975
lwrist -23.4622
lhand -11.3807 1.89545
lfingers 7.12502
lthumb 14.6538 31.3577
rfemur -55.9888 -16.2699 27.1568
rtibia 52.8284
rfoot -27.8325 -31.7972
rtoes 29.731
lfemur -14.6505 8.38344 -33.4091
ltibia 56.1881
lfoot -16.2788 28.8519
ltoes 1.17
166
root 3.98653 15.8286 -4.91916 23.4171 74.2555 14.0407
lowerback -11.9439 -7.81112 -7.13468
upperback -11.7635 -9.06628 10.1286
thorax -3.23531 -3.58324 14.136
lowerneck -3.89633 -12.2289 -12.3526
upperneck 38.2922 -14.3907 -2.49894
head 14.7675 -7.82627 -0.827606
rclavicle 6.83819e-014 1.27222e-014
rhumerus 81.3711 -16.6674 -4.4476
rradius 48.2494
rwrist 32.8321
rhand 16.3118 -6.14671
rfingers 7.12502
rthumb 41.085 -31.036
lclavicle 6.83819e-014 1.27222e-014
lhumerus 95.1528 23.3166 22.1171
lradius 45.0003
lwrist -23.4184
lhand -11.2099 1.73121
lfingers 7.12502
lthumb 14.8183 31.1814
rfemur -55.2866 -16.908 27.6933
rtibia 53.2193
rfoot -28.7251 -31.9492
rtoes 33.181
lfemur -15.3408 10.0674 -32.7736
ltibia 57.6989
lfoot -18.317 30.7092
ltoes -1.45094
167
root 4.06246 15.8179 -4.84763 22.9447 75.236 13.7733
lowerback -11.6956 -7.69523 -6.72149
upperback -11.9177 -8.918 10.1089
thorax -3.63733 -3.48696 13.9417
lowerneck -3.99417 -12.043 -12.1694
upperneck 38.4866 -14.1174 -2.46115
head 14.8477 -7.66626 -0.807535
rclavicle -4.77083e-014 3.18055e-014
rhumerus 81.322 -16.8827 -3.74094
rradius 48.6581
rwrist 30.8152
rhand 17.2636 -7.87084
rfingers 7.12502
rthumb 41.9779 -32.4683
lclavicle -4.77083e-014 3.18055e-014
lhumerus 95.0986 23.422 21.6494
lradius 44.718
lwrist -23.3504
lhand -10.5501 2.06872
lfingers 7.12502
lthumb 15.4539 31.471
rfemur -54.8769 -17.6488 28.1726
rtibia 53.5584
rfoot -29.4278 -32.1804
rtoes 33.8706
lfemur -16.3423 11.7108 -32.438
ltibia 59.2433
lfoot -20.5041 33.244
ltoes 2.06323
168
root 4.13654 15.8008 -4.77943 22.8777 76.1103 13.6555
lowerback -11.6516 -7.40596 -6.12647
upperback -12.2496 -8.51933 9.80023
thorax -4.25785 -3.25581 13.3384
lowerneck -3.88768 -12.6887 -13.4718
upperneck 38.8186 -15.1316 -1.78655
head 15.2926 -8.1768 -0.544017
rclavicle 2.14687e-014 0
rhumerus 80.5715 -16.9326 -2.66074
rradius 48.8156
rwrist 28.9674
rhand 17.8522 -9.71607
rfingers 7.12502
rthumb 42.5293 -34.1263
lclavicle 2.14687e-014 0
lhumerus 95.7095 22.8689 21.6375
lradius 44.3218
lwrist -23.3885
lhand -9.82945 3.38188
lfingers 7.12502
lthumb 16.1479 32.7292
rfemur -54.8065 -18.64 28.847
rtibia 53.7618
rfoot -30.1932 -31.9662
rtoes 33.8348
lfemur -17.7671 13.3676 -32.3326
ltibia 60.8605
lfoot -23.9883 35.9825
ltoes 5.77411
